<svg xmlns="http://www.w3.org/2000/svg" width="569.93" height="120.52" viewBox="0 0 569.93 120.52">
  <g id="Group_1" data-name="Group 1" transform="translate(-430.06 -83)">
    <path id="Path_1" data-name="Path 1" d="M468.08,47.08l-3.82,7.44a11.449,11.449,0,0,0-3-1.73,9,9,0,0,0-3.4-.66,5.25,5.25,0,0,0-.54,0,3.25,3.25,0,0,0-.59.12,5.06,5.06,0,0,0-2,1,2.37,2.37,0,0,0-.93,2,2.28,2.28,0,0,0,.88,1.88,7.77,7.77,0,0,0,1.91,1.15l.76.27a7.169,7.169,0,0,0,.71.22l2.45.69a17.91,17.91,0,0,1,6.48,3.4q2.63,2.24,2.62,6.73v.79a17.329,17.329,0,0,1-.93,5,9.48,9.48,0,0,1-2.89,4.18,12.171,12.171,0,0,1-4.21,2.4,20.171,20.171,0,0,1-4.8,1h-1.46a21.67,21.67,0,0,1-6.81-1.1,24.509,24.509,0,0,1-6.17-3.06l4.1-7.8a20.25,20.25,0,0,0,3.95,2.75A9.63,9.63,0,0,0,455,74.84h.39a5.69,5.69,0,0,0,2.94-1,3.09,3.09,0,0,0,1.32-2.72,2.61,2.61,0,0,0-1.1-2.2A8.87,8.87,0,0,0,456,67.6c-.39-.13-.78-.26-1.17-.37l-1.08-.32a.809.809,0,0,0-.22-.07.72.72,0,0,1-.22-.08,21.59,21.59,0,0,1-7-3.13q-2.59-1.91-2.59-7.15a11.79,11.79,0,0,1,3.6-9,12.81,12.81,0,0,1,9.13-3.37,22.589,22.589,0,0,1,2.3.12,17.518,17.518,0,0,1,2.35.41,30.388,30.388,0,0,1,3.65,1A21.668,21.668,0,0,1,468,47.11Z" transform="translate(415 73.25)" fill="#e76f51"/>
    <path id="Path_2" data-name="Path 2" d="M497.61,59.27V45h9.59V81.94h-9.59V66.81H483.75V81.94h-9.6V45h9.6V59.27Z" transform="translate(415 73.25)" fill="#e76f51"/>
    <path id="Path_3" data-name="Path 3" d="M532,43.8a21.51,21.51,0,0,1,14.2,5.36,17.22,17.22,0,0,1,6.22,13.69q0,9-5.76,14.64a21.76,21.76,0,0,1-29.3,0q-5.78-5.68-5.77-14.64a17.21,17.21,0,0,1,6.21-13.69A21.26,21.26,0,0,1,532,43.85Zm-7.37,12.31a9.21,9.21,0,0,0-3.06,6.79,10.83,10.83,0,0,0,3.06,7.88,10.23,10.23,0,0,0,14.74,0,10.86,10.86,0,0,0,3.06-7.9,9.23,9.23,0,0,0-3.06-6.8,10.21,10.21,0,0,0-7.37-3,10.45,10.45,0,0,0-7.35,3.03Z" transform="translate(415 73.25)" fill="#e76f51"/>
    <path id="Path_4" data-name="Path 4" d="M556.89,45h14.69a15.59,15.59,0,0,1,9.69,3q3.72,2.9,3.72,9.26t-3.4,9.52q-3.4,3-9.67,3h-5.43V81.94h-9.6Zm9.6,17h1.61a17.339,17.339,0,0,0,4.75-.52c1.44-.37,2.16-1.69,2.16-3.94s-.69-3.72-2.06-4.13a17,17,0,0,0-4.85-.62h-1.61Z" transform="translate(415 73.25)" fill="#e76f51"/>
    <path id="Path_5" data-name="Path 5" d="M448,86.74h-8.77V80.79a16.07,16.07,0,0,0-3.65-.47A15.18,15.18,0,0,0,420.3,95.66a16.137,16.137,0,0,0,.27,3,15.29,15.29,0,0,0,30.24-1.82V95.73A14.71,14.71,0,0,0,448,86.74Z" transform="translate(415 73.25)" fill="#e76f51"/>
    <path id="Path_6" data-name="Path 6" d="M131.16,30.58l-10.58-7.7L138.99.42l14.49,10.45Z" transform="translate(415 83)" fill="#e76f51"/>
    <path id="Path_7" data-name="Path 7" d="M71.72,31.94v.11h0Z" transform="translate(415 73.25)" fill="#2a9d8f"/>
    <path id="Path_8" data-name="Path 8" d="M68.13,60.54a32.07,32.07,0,0,0-13.9-6.14l-2.09-.33a20.381,20.381,0,0,1-2.48-.58,14.57,14.57,0,0,1-4.24-1.64,3.59,3.59,0,0,1-1.9-3.33A3.19,3.19,0,0,1,45,45.72a9.14,9.14,0,0,1,3.26-1.37A4.9,4.9,0,0,1,49.59,44c.48,0,.94-.06,1.37-.06a19,19,0,0,1,2.68.19c.91.13,1.85.28,2.81.46a29.65,29.65,0,0,1,7.31,2.48l7.91-15A45.66,45.66,0,0,0,61,28.75a64.13,64.13,0,0,0-11.29-1h-.78a36.76,36.76,0,0,0-19.72,5.87q-9,5.74-9,17.89,0,9,4.64,12.6a27.72,27.72,0,0,0,10.25,5c1,.26,1.89.5,2.8.72s1.85.41,2.81.59a31.72,31.72,0,0,1,6.53,2,4.23,4.23,0,0,1,2.74,4.11,3.85,3.85,0,0,1-1.57,3.27,8.62,8.62,0,0,1-3.52,1.56c-.44.09-.85.16-1.24.2a8.7,8.7,0,0,1-1.11.07,18.73,18.73,0,0,1-3.79-.4,38.2,38.2,0,0,1-4-1,55.85,55.85,0,0,1-5.88-2.42,28.359,28.359,0,0,1-5.09-3.06L15.06,91.48a54.19,54.19,0,0,0,13,5.61,50.7,50.7,0,0,0,14,2h1.43a41.56,41.56,0,0,0,20.76-6.2q9.41-5.8,9.4-18.61Q73.68,65,68.13,60.54Z" transform="translate(415 73.25)" fill="#2a9d8f"/>
    <path id="Path_9" data-name="Path 9" d="M136,29.86v6.66a21.82,21.82,0,0,0-8.16-6.08,30.53,30.53,0,0,0-10-2.54,6.54,6.54,0,0,0-1.31-.13h-1.31q-14.88,0-24.21,10.64a36.67,36.67,0,0,0-9.34,25,36.41,36.41,0,0,0,9.47,25Q100.58,99,115.46,99.05h1a4.06,4.06,0,0,0,1-.13,27.69,27.69,0,0,0,10.32-2.55,17.59,17.59,0,0,0,7.83-7H136v7.44h23.76v-67Zm-3.2,44.37q-4,4.32-11.29,4.32t-11.23-4.3a15,15,0,0,1-4-10.71,15.38,15.38,0,0,1,4-10.64q4-4.5,11.23-4.63t11.29,4.52a15.62,15.62,0,0,1,4,10.68,15.28,15.28,0,0,1-4.05,10.76Z" transform="translate(415 73.25)" fill="#2a9d8f"/>
    <path id="Path_10" data-name="Path 10" d="M220.94,27.77a28.79,28.79,0,0,0-12.07,2.35,23.55,23.55,0,0,0-9.34,8.35h-.26V29.86H175.51v67h23.76V62.23a21.87,21.87,0,0,1,2.61-10.9q2.61-4.63,9.79-4.63,6.14,0,8.23,3.46a16.44,16.44,0,0,1,2.35,7.5c.08.87.13,1.75.13,2.62V96.83h23.76V55.58q0-12.4-5.81-20.11T220.94,27.77Z" transform="translate(415 73.25)" fill="#2a9d8f"/>
    <path id="Path_11" data-name="Path 11" d="M311.55,29.86v7l-.26.13a20.13,20.13,0,0,0-8.69-7.12,28.42,28.42,0,0,0-11-2.15q-15.4,0-24.87,10.77a37.39,37.39,0,0,0-9.46,25.52q0,14.49,9.2,24.28t23.83,9.8A28.7,28.7,0,0,0,302,95.92,31.06,31.06,0,0,0,311.6,89v3.26a29.69,29.69,0,0,1-2.81,13.51q-2.81,5.55-12.47,5.55a10.777,10.777,0,0,1-1.37-.06,13.648,13.648,0,0,1-1.37-.2,11.616,11.616,0,0,1-6.79-3.33,7.36,7.36,0,0,1-1.7-3.07H258.41A22.41,22.41,0,0,0,267.88,121a47.33,47.33,0,0,0,17.95,8.1,39.9,39.9,0,0,0,5.48.91c1.83.17,3.57.26,5.22.26q18.54,0,28.66-9.27t10.12-30.7V29.86Zm-3.2,43.84q-4,4.33-11.3,4.33c-4.78,0-8.53-1.43-11.22-4.31A15,15,0,0,1,281.78,63a15.39,15.39,0,0,1,4.05-10.64c2.69-3,6.44-4.55,11.22-4.64s8.64,1.51,11.3,4.53a15.64,15.64,0,0,1,4,10.68,15.27,15.27,0,0,1-4,10.77Z" transform="translate(415 73.25)" fill="#2a9d8f"/>
    <path id="Path_12" data-name="Path 12" d="M376.17,0H352.41V20.11H344.7V39.69h7.71V87.08h23.76V39.69h13.45V20.11H376.17Z" transform="translate(415 83)" fill="#2a9d8f"/>
    <path id="Path_13" data-name="Path 13" d="M421,52.9a15.39,15.39,0,0,0-4.05,10.64A15,15,0,0,0,421,74.25c2.69,2.87,6.44,4.3,11.22,4.3a17.33,17.33,0,0,0,7.06-1.34v9.53h31.2V96.83H446.67V89.39h-.27a17.59,17.59,0,0,1-7.83,7,27.64,27.64,0,0,1-10.31,2.55,4.19,4.19,0,0,1-1.05.13h-1a39.05,39.05,0,0,1-5.6-.4,30.51,30.51,0,0,1-18.75-10.24,36.41,36.41,0,0,1-9.47-25,36.72,36.72,0,0,1,9.34-25Q411,27.78,425.91,27.77h1.3a6.47,6.47,0,0,1,1.31.13,30.65,30.65,0,0,1,10,2.54,22,22,0,0,1,8.16,6.08V29.86h23.76V40.23h-31.2v9.44a16.69,16.69,0,0,0-7.06-1.4C427.39,48.35,423.64,49.9,421,52.9Z" transform="translate(415 73.25)" fill="#2a9d8f"/>
    <path id="Path_14" data-name="Path 14" d="M493.4,89.85a47.78,47.78,0,0,0,56.47-.07,32.366,32.366,0,0,0,3.42-3h-63.4a31.917,31.917,0,0,0,3.51,3.07Z" transform="translate(415 73.25)" fill="#2a9d8f"/>
    <path id="Path_15" data-name="Path 15" d="M549.87,37.1a45.51,45.51,0,0,0-28.27-9.46v.13a44.89,44.89,0,0,0-28.26,9.33,31.734,31.734,0,0,0-3.48,3.13h63.49A32.676,32.676,0,0,0,549.87,37.1Z" transform="translate(415 73.25)" fill="#2a9d8f"/>
  </g>
</svg>
